<?xml version="1.0" encoding="UTF-8"?>
<svg id="Layer_2" data-name="Layer 2" xmlns="http://www.w3.org/2000/svg" viewBox="0 0 231.76 44.34">
  <defs>
    <style>
      .cls-1 {
        fill: #004ee0;
      }
    </style>
  </defs>
  <g id="Layer_1-2" data-name="Layer 1">
    <g>
      <path class="cls-1" d="M0,10.46C0,3.44,4,0,12.19,0c6.68,0,10.27,3.25,10.27,7.48s-2.87,5.06-5.36,5.06v.41c2.49,0,7.13.49,7.13,6.11,0,4.3-3.36,8.12-10.91,8.12-4.83,0-8.38-2.11-8.38-4.87v-.34l-.41-.04v4.87H.04l-.04-16.35ZM10.84,11.14h1.62c1.66,0,5.59-.34,5.59-3.32,0-2.11-2.04-3.59-6.12-3.59-4.87,0-7.36,1.66-7.36,6.23v5.13c0,4.95,3.47,7.33,8.8,7.33,3.21,0,6.57-1.02,6.57-4.19,0-3.47-3.97-3.62-5.85-3.62h-3.25v-3.97Z"/>
      <path class="cls-1" d="M31.58,22.65h14.08v4.15h-14.57c-2.53,0-4.04-1.51-4.04-4.08V.38h4.53v22.27Z"/>
      <path class="cls-1" d="M58.84,22.92c4.15,0,7.1-2.42,7.1-6.72V.38h4.57v15.78c0,6.98-4.53,11.02-11.51,11.02s-11.71-4.08-11.71-11.02V.38h4.53v15.82c0,4.34,2.87,6.72,7.02,6.72Z"/>
      <path class="cls-1" d="M91.02,15.67h-13.17v6.98h15.37v4.15h-15.74c-2.49,0-4.15-1.66-4.15-4.15v-5.25c0-2.15.72-3.66,2.91-3.62h.23v-.38h-.23c-2.19,0-2.91-1.47-2.91-3.62v-5.25c0-2.49,1.66-4.15,4.15-4.15h15.74v4.15h-15.37v6.98h13.17v4.15Z"/>
      <path class="cls-1" d="M107.46,22.92c4.11,0,7.02-2.42,7.02-6.72V.38h4.57v15.82c0,4.3,2.83,6.72,6.91,6.72s7.02-2.42,7.02-6.72V.38h4.53v15.78c0,6.94-4.49,11.02-11.21,11.02-4.98,0-9.14-2.53-9.32-6.23h-.38c-.19,3.7-4.27,6.23-9.14,6.23-6.83,0-11.44-4.12-11.44-11.02V.38h4.53v15.82c0,4.3,2.83,6.72,6.91,6.72Z"/>
      <path class="cls-1" d="M140.36.38h4.53v10.46h13.97V.38h4.53v26.43h-4.53v-11.78h-13.97v11.78h-4.53V.38Z"/>
      <path class="cls-1" d="M187.71,26.8h-4.57v-6.87h-12.38v6.87h-4.53v-9.44c0-11.06,6.08-16.99,17.33-16.99h4.15v26.43ZM183.15,15.74V4.64h-.94c-7.02,0-10.98,4.04-11.4,11.1h12.34Z"/>
      <path class="cls-1" d="M195.05,22.65h14.08v4.15h-14.57c-2.53,0-4.04-1.51-4.04-4.08V.38h4.53v22.27Z"/>
      <path class="cls-1" d="M229.57,15.67h-13.17v6.98h15.37v4.15h-15.74c-2.49,0-4.15-1.66-4.15-4.15v-5.25c0-2.15.72-3.66,2.91-3.62h.23v-.38h-.23c-2.19,0-2.91-1.47-2.91-3.62v-5.25c0-2.49,1.66-4.15,4.15-4.15h15.74v4.15h-15.37v6.98h13.17v4.15Z"/>
    </g>
    <g>
      <path class="cls-1" d="M1.76,40.85v-.09h-.12v3.44H.5v-5.51c0-2.2,1.41-3.53,3.75-3.53s3.76,1.39,3.76,3.68-1.4,3.63-3.62,3.63c-1.41,0-2.64-.64-2.64-1.62ZM4.35,41.36c1.58,0,2.52-.94,2.52-2.52s-.93-2.55-2.62-2.55-2.62.85-2.62,2.55c0,1.41.98,2.52,2.71,2.52Z"/>
      <path class="cls-1" d="M25.82,43.2c1.55,0,2.58-.95,2.58-2.55v-5.36h1.14v5.32c0,2.32-1.43,3.72-3.66,3.72s-3.73-1.43-3.73-3.72v-5.32h1.15v5.36c0,1.6.98,2.55,2.52,2.55Z"/>
      <path class="cls-1" d="M43.68,38.69c-.01-2.37,1.26-3.53,3.85-3.53,2.04,0,3.26,1.03,3.26,2.48s-1.05,1.77-1.84,1.77v.14c.79,0,2.39.11,2.39,2.07,0,1.48-1.15,2.7-3.56,2.7-1.63,0-2.84-.75-2.84-1.64v-.13h-.12v1.64h-1.14v-5.51ZM47.1,39.05h.51c.53,0,2.06-.14,2.06-1.34,0-.85-.81-1.42-2.22-1.42-1.78,0-2.63.7-2.63,2.4v1.85c0,1.68,1.18,2.66,3.04,2.66,1.23,0,2.4-.45,2.4-1.63,0-1.39-1.48-1.44-2.13-1.44h-1.03v-1.08Z"/>
      <path class="cls-1" d="M66.6,43.08h4.69v1.12h-4.73c-.7,0-1.09-.41-1.09-1.16v-7.75h1.14v7.79Z"/>
      <path class="cls-1" d="M85.39,35.29h1.14v8.91h-1.14v-8.91Z"/>
      <path class="cls-1" d="M105.02,43.25c1.47,0,2.45-.8,2.88-2.15h1.2c-.44,1.97-1.92,3.23-4.08,3.23-2.62,0-4.35-1.83-4.35-4.58s1.73-4.58,4.35-4.58c2.15,0,3.63,1.26,4.08,3.23h-1.2c-.43-1.35-1.41-2.15-2.88-2.15-1.92,0-3.22,1.38-3.22,3.5s1.29,3.5,3.22,3.5Z"/>
      <path class="cls-1" d="M129.98,44.2h-1.15v-2.46h-4.52s0,2.46,0,2.46h-1.14v-3.18c0-3.73,1.92-5.73,5.5-5.73h1.3v8.91ZM128.83,40.62v-4.2h-.38c-2.64,0-4.04,1.48-4.12,4.19h4.51Z"/>
      <path class="cls-1" d="M148.27,36.4v7.8h-1.12v-7.8h-3.08v-1.11h7.29v1.11h-3.08Z"/>
      <path class="cls-1" d="M165.42,35.29h1.14v8.91h-1.14v-8.91Z"/>
      <path class="cls-1" d="M185.05,35.16c2.6,0,4.35,1.83,4.35,4.58s-1.75,4.58-4.35,4.58-4.35-1.83-4.35-4.58,1.73-4.58,4.35-4.58ZM185.05,43.25c1.92,0,3.21-1.39,3.21-3.5s-1.29-3.5-3.21-3.5-3.22,1.38-3.22,3.5,1.29,3.5,3.22,3.5Z"/>
      <path class="cls-1" d="M204.68,44.2h-1.15v-5.32c0-2.29,1.47-3.72,3.73-3.72s3.66,1.4,3.66,3.72v5.32h-1.14v-5.36c0-1.59-1.03-2.55-2.58-2.55s-2.52.94-2.52,2.55v5.36Z"/>
      <path class="cls-1" d="M228.52,35.16c1.22,0,1.98.14,2.88.5v1.21c-.59-.22-1.31-.61-2.83-.61-1.7,0-2.49.51-2.49,1.49,0,2.42,5.68.32,5.68,3.96,0,1.76-1.3,2.63-3.56,2.63-1.23,0-2-.14-2.88-.5v-1.21c.59.22,1.31.61,2.83.61,1.7,0,2.49-.51,2.49-1.48,0-2.42-5.68-.34-5.68-3.97,0-1.76,1.3-2.63,3.56-2.63Z"/>
    </g>
  </g>
</svg>